<svg xmlns="http://www.w3.org/2000/svg" width="640" height="320">
<rect width="640" height="320" fill="#fff"/>
<text x="320" y="20" text-anchor="middle" font-size="13" font-family="sans-serif">LSTM – training and validation loss</text>
<polyline points="50.0,85.7 83.8,119.9 117.5,127.1 151.2,132.8 185.0,137.6 218.8,144.9 252.5,151.9 286.2,159.4 320.0,174.2 353.8,185.3 387.5,193.8 421.2,208.3 455.0,224.1 488.8,233.6 522.5,246.1 556.2,260.6 590.0,270.0" fill="none" stroke="#2563eb" stroke-width="2"/>
<polyline points="50.0,135.2 83.8,158.4 117.5,132.9 151.2,144.8 185.0,130.1 218.8,137.0 252.5,128.3 286.2,89.7 320.0,124.1 353.8,116.3 387.5,98.8 421.2,98.4 455.0,88.0 488.8,50.0 522.5,70.2 556.2,71.7 590.0,58.4" fill="none" stroke="#dc2626" stroke-width="2"/>
<text x="50" y="312" font-size="10" fill="#2563eb" font-family="sans-serif">— train</text>
<text x="110" y="312" font-size="10" fill="#dc2626" font-family="sans-serif">— val</text>
</svg>