<svg xmlns="http://www.w3.org/2000/svg" width="640" height="320">
<rect width="640" height="320" fill="#fff"/>
<text x="320" y="20" text-anchor="middle" font-size="13" font-family="sans-serif">Transformer – training and validation loss</text>
<polyline points="50.0,50.0 72.5,219.2 95.0,227.8 117.5,233.6 140.0,238.0 162.5,239.7 185.0,240.3 207.5,242.7 230.0,243.1 252.5,243.8 275.0,246.5 297.5,249.0 320.0,249.6 342.5,251.2 365.0,252.2 387.5,253.7 410.0,255.0 432.5,257.3 455.0,258.2 477.5,261.5 500.0,262.9 522.5,264.3 545.0,266.0 567.5,267.8 590.0,270.0" fill="none" stroke="#2563eb" stroke-width="2"/>
<polyline points="50.0,211.7 72.5,228.1 95.0,238.9 117.5,221.1 140.0,174.1 162.5,212.9 185.0,229.2 207.5,248.5 230.0,231.2 252.5,251.1 275.0,249.0 297.5,248.7 320.0,244.6 342.5,249.9 365.0,248.7 387.5,213.9 410.0,220.5 432.5,229.8 455.0,188.6 477.5,158.9 500.0,244.8 522.5,185.8 545.0,213.1 567.5,221.8 590.0,207.8" fill="none" stroke="#dc2626" stroke-width="2"/>
<text x="50" y="312" font-size="10" fill="#2563eb" font-family="sans-serif">— train</text>
<text x="110" y="312" font-size="10" fill="#dc2626" font-family="sans-serif">— val</text>
</svg>