<svg xmlns="http://www.w3.org/2000/svg" width="640" height="320">
<rect width="640" height="320" fill="#fff"/>
<text x="320" y="20" text-anchor="middle" font-size="13" font-family="sans-serif">Transformer – training and validation loss</text>
<polyline points="50.0,50.0 68.0,179.4 86.0,185.7 104.0,188.5 122.0,191.9 140.0,193.0 158.0,195.4 176.0,195.2 194.0,196.6 212.0,197.5 230.0,196.9 248.0,197.9 266.0,199.2 284.0,199.2 302.0,199.1 320.0,199.5 338.0,200.8 356.0,201.1 374.0,201.0 392.0,201.7 410.0,202.4 428.0,202.6 446.0,202.6 464.0,202.6 482.0,201.9 500.0,204.1 518.0,204.6 536.0,203.7 554.0,204.5 572.0,205.0 590.0,205.3" fill="none" stroke="#2563eb" stroke-width="2"/>
<polyline points="50.0,252.3 68.0,254.1 86.0,265.0 104.0,266.6 122.0,264.8 140.0,268.2 158.0,267.5 176.0,268.1 194.0,267.9 212.0,266.1 230.0,268.1 248.0,266.4 266.0,266.9 284.0,265.6 302.0,265.4 320.0,270.0 338.0,268.3 356.0,269.5 374.0,269.0 392.0,267.2 410.0,263.9 428.0,268.8 446.0,266.0 464.0,266.0 482.0,256.2 500.0,268.0 518.0,256.7 536.0,264.5 554.0,263.7 572.0,260.6 590.0,256.6" fill="none" stroke="#dc2626" stroke-width="2"/>
<text x="50" y="312" font-size="10" fill="#2563eb" font-family="sans-serif">— train</text>
<text x="110" y="312" font-size="10" fill="#dc2626" font-family="sans-serif">— val</text>
</svg>